<?xml version="1.0" standalone="no"?>
<!DOCTYPE svg PUBLIC "-//W3C//DTD SVG 20010904//EN"
 "http://www.w3.org/TR/2001/REC-SVG-20010904/DTD/svg10.dtd">
<svg version="1.0" xmlns="http://www.w3.org/2000/svg"
 width="1400.000000pt" height="1400.000000pt" viewBox="0 0 1400.000000 1400.000000"
 preserveAspectRatio="xMidYMid meet">
<metadata>
Created by potrace 1.14, written by Peter Selinger 2001-2017
</metadata>
<g transform="translate(0.000000,1400.000000) scale(0.100000,-0.100000)"
fill="#000000" stroke="none">
<path d="M6818 11818 c-40 -10 -49 -25 -22 -35 19 -7 107 20 112 36 4 13 -37
13 -90 -1z"/>
<path d="M7039 11763 c-15 -17 -36 -29 -54 -30 -16 -1 -41 -12 -55 -23 -75
-60 -93 -64 -327 -76 -140 -7 -142 -9 -92 -79 21 -29 30 -51 26 -65 -10 -38
15 -49 100 -43 51 3 88 1 108 -8 l30 -12 -40 -7 c-107 -20 -160 -35 -177 -52
-10 -10 -26 -18 -35 -18 -20 0 -45 14 -44 24 1 3 -2 7 -6 9 -5 1 -9 -13 -11
-31 -2 -24 -10 -35 -27 -42 -26 -10 -30 -15 -39 -51 -5 -25 -3 -27 32 -32 20
-2 41 0 47 4 13 12 45 11 45 -1 0 -5 -4 -10 -10 -10 -5 0 -10 -6 -10 -13 0
-18 -92 -65 -98 -49 -5 15 -32 16 -32 2 0 -6 10 -15 23 -21 l23 -10 -38 -39
c-46 -46 -48 -64 -5 -80 40 -16 76 -58 77 -87 0 -16 8 -24 28 -28 15 -4 35
-10 44 -16 25 -13 32 -11 19 5 -9 11 -6 18 14 34 14 11 21 22 15 24 -6 2 60 5
147 6 87 1 167 3 178 4 49 3 208 -16 218 -26 52 -48 127 -61 187 -34 49 23
101 38 130 38 318 4 450 -15 538 -74 35 -23 50 -42 62 -76 8 -25 18 -50 22
-56 4 -6 10 -26 13 -45 2 -19 9 -54 15 -79 37 -159 41 -536 9 -727 -20 -115
-25 -213 -11 -213 4 0 17 15 30 33 12 17 33 47 46 64 13 18 29 57 36 85 14 59
69 175 107 226 38 51 90 171 97 227 4 28 11 149 16 270 5 121 12 238 16 260 4
22 6 87 6 145 -2 137 -21 191 -107 290 -42 49 -66 85 -70 109 -7 38 -49 85
-86 96 -22 7 -46 27 -137 113 -25 23 -59 49 -76 58 -53 27 -205 74 -241 74
-19 0 -41 8 -51 18 -17 16 -101 62 -116 62 -5 0 -8 -6 -8 -12 0 -10 -24 -12
-98 -10 -86 3 -106 1 -158 -21 -101 -42 -129 -49 -157 -38 -18 7 -25 15 -21
26 6 15 -21 55 -36 55 -4 0 -18 -12 -31 -27z m66 -137 c28 -13 64 -30 80 -37
l30 -14 -50 -3 c-86 -6 -165 34 -133 66 16 16 16 16 73 -12z"/>
<path d="M6146 10879 c-18 -21 -18 -23 -1 -52 13 -21 18 -47 16 -81 -2 -43 -7
-55 -36 -82 -42 -38 -49 -66 -42 -163 7 -84 14 -111 29 -111 6 0 8 6 5 14 -3
8 5 24 19 37 l24 22 0 -36 c0 -19 -7 -42 -15 -51 -25 -24 -18 -72 15 -109 27
-31 30 -42 30 -101 0 -54 3 -64 15 -60 8 4 15 12 15 20 0 8 5 14 11 14 7 0 5
10 -5 25 -18 27 -15 31 34 37 20 2 26 9 28 36 2 23 -1 32 -12 32 -16 0 -31 34
-21 50 3 5 17 10 31 10 27 0 34 27 9 36 -25 10 -17 27 10 22 16 -3 30 1 41 14
16 17 16 20 -5 42 -21 23 -21 24 -4 55 15 26 16 33 4 40 -19 12 -8 81 16 98 9
7 14 13 10 13 -4 0 2 15 12 33 21 38 40 112 21 87 -8 -11 -9 -3 -4 30 4 25 10
49 15 54 16 18 9 36 -13 36 -13 0 -38 -9 -57 -21 -37 -23 -82 -20 -110 5 -30
27 -64 29 -85 5z m73 -432 c-28 -24 -35 -26 -37 -13 -2 9 9 29 25 44 22 22 30
24 37 13 6 -10 -1 -23 -25 -44z"/>
<path d="M6530 10831 c0 -11 4 -21 9 -21 18 0 21 18 6 30 -13 10 -15 9 -15 -9z"/>
<path d="M6670 10775 c0 -8 -4 -15 -10 -15 -5 0 -10 -7 -10 -16 0 -8 -4 -12
-10 -9 -6 3 -7 -1 -4 -10 4 -8 1 -29 -6 -45 -10 -23 -19 -30 -40 -30 -28 0
-46 -22 -34 -42 3 -5 -1 -17 -9 -26 -18 -22 -29 -52 -18 -52 5 0 11 -9 14 -20
3 -14 14 -20 31 -20 17 0 26 -5 26 -15 0 -21 -30 -31 -41 -14 -6 10 -9 4 -9
-19 0 -18 4 -31 9 -27 5 3 12 2 15 -3 3 -5 -27 -42 -66 -83 -122 -128 -171
-228 -118 -242 17 -4 19 -11 13 -37 l-6 -33 69 5 c56 4 80 0 126 -19 32 -13
71 -23 88 -23 17 0 37 -5 44 -12 10 -10 9 -16 -8 -30 -12 -10 -15 -17 -8 -18
6 0 12 -7 12 -15 0 -8 -6 -15 -12 -15 -7 0 -30 -16 -52 -35 -21 -19 -45 -35
-54 -35 -31 0 -177 34 -180 42 -7 16 -20 7 -24 -17 -3 -13 -2 -24 1 -23 19 2
19 -6 -3 -39 -22 -35 -24 -47 -22 -152 1 -81 6 -116 14 -119 10 -3 10 -7 1
-18 -7 -8 -8 -18 -4 -22 4 -4 10 -1 12 5 3 9 10 10 24 3 25 -14 25 -64 0 -89
-16 -16 -17 -20 -5 -25 11 -4 12 -10 3 -30 -8 -16 -17 -22 -27 -19 -12 5 -14
1 -9 -18 4 -13 7 -32 7 -41 0 -10 6 -15 13 -13 18 7 35 -7 42 -38 6 -21 4 -27
-9 -27 -9 0 -19 7 -22 15 -4 8 -10 15 -15 15 -4 0 -6 -6 -3 -14 3 -8 -5 -21
-18 -30 -19 -14 -21 -18 -8 -26 10 -6 11 -10 3 -10 -21 0 -15 -64 7 -88 11
-12 20 -26 20 -32 0 -5 5 -10 10 -10 6 0 10 -7 10 -15 0 -8 5 -15 12 -15 6 0
9 -3 5 -6 -7 -7 29 -78 49 -95 8 -6 14 -17 14 -23 0 -6 16 -21 35 -34 19 -12
35 -27 35 -33 0 -7 23 -34 52 -60 28 -27 49 -51 47 -53 -10 -10 -96 29 -176
79 -48 30 -99 55 -113 55 -30 0 -54 -25 -64 -66 -5 -21 -4 -25 4 -14 7 11 9
-6 7 -60 -2 -51 -7 -74 -15 -72 -8 1 -12 -14 -11 -45 1 -27 4 -38 6 -25 5 24
23 31 23 8 0 -7 -3 -28 -6 -46 -5 -22 -9 -28 -15 -18 -5 7 -9 -28 -9 -84 0
-81 3 -98 15 -98 18 0 21 -60 5 -91 -7 -13 -7 -19 0 -19 5 0 13 -18 16 -40 4
-25 12 -40 21 -40 22 0 45 -28 47 -55 0 -14 4 -25 9 -25 4 0 7 -8 7 -19 0 -10
7 -24 15 -31 8 -7 15 -18 14 -24 -2 -20 13 -56 24 -56 6 0 8 -2 5 -5 -7 -7
-77 31 -109 60 -16 13 -41 43 -55 65 -15 22 -30 40 -34 40 -4 0 -22 30 -40 68
-45 93 -49 103 -52 137 -3 24 -7 18 -26 -40 -18 -52 -25 -101 -29 -190 l-5
-120 34 -22 c34 -22 138 -32 377 -35 82 -1 173 -13 131 -18 -8 -1 0 -7 19 -14
54 -19 53 -29 -10 -76 -33 -24 -54 -94 -45 -152 4 -24 8 -57 8 -74 1 -29 16
-39 33 -22 4 3 8 46 9 95 2 48 7 96 11 106 17 39 25 11 25 -88 0 -63 4 -105
10 -105 6 0 10 -9 10 -20 0 -24 31 -27 57 -6 10 8 52 42 93 75 274 220 359
298 541 486 75 77 248 300 249 319 0 5 -27 -19 -59 -55 -33 -35 -72 -75 -88
-89 -15 -14 -69 -65 -119 -113 -84 -81 -171 -147 -194 -147 -4 0 -10 -4 -12
-9 -4 -13 -275 -101 -310 -101 -37 0 -43 27 -29 132 8 57 17 89 30 102 16 15
17 24 9 47 -5 16 -14 29 -19 29 -5 0 -9 7 -9 15 0 8 -4 15 -9 15 -8 0 -19 29
-27 75 -2 11 -10 44 -18 73 -9 32 -12 62 -7 75 4 12 7 27 5 32 -2 6 3 18 10
28 12 16 17 17 35 5 18 -11 23 -11 31 2 8 12 10 12 10 1 0 -10 8 -11 28 -6 15
3 43 8 62 10 54 6 163 25 180 32 8 3 24 8 34 10 11 2 34 15 52 28 18 14 44 25
58 25 29 0 42 16 27 34 -18 21 -119 40 -136 26 -9 -7 -15 -8 -15 -2 0 5 -16
13 -36 17 -20 3 -46 15 -57 26 -11 10 -30 19 -41 19 -12 0 -40 9 -63 19 -23
11 -43 17 -46 15 -2 -2 -16 13 -31 35 -15 22 -41 44 -57 50 -19 7 -29 17 -29
30 0 14 -6 21 -20 21 -12 0 -20 7 -20 16 0 13 -10 15 -57 12 -52 -3 -58 -1
-58 17 0 15 -6 19 -22 18 -19 -2 -23 2 -23 23 0 23 2 25 16 13 11 -9 37 -13
80 -10 54 2 64 0 64 -13 0 -15 3 -15 32 0 18 9 65 20 106 25 74 8 106 22 99
43 -6 18 45 37 116 43 37 3 70 10 73 14 3 5 -3 8 -13 7 -10 -2 -58 3 -106 11
-70 10 -85 16 -77 26 8 9 8 15 0 20 -6 3 -8 11 -5 16 4 5 1 9 -4 9 -6 0 -11 5
-11 10 0 6 12 10 28 10 15 0 41 4 57 9 19 5 79 3 155 -5 170 -18 209 -18 217
1 9 25 -4 30 -75 30 -37 0 -76 4 -88 8 -11 4 -90 20 -175 37 -228 43 -224 42
-224 70 0 16 10 31 28 42 28 19 37 48 13 48 -17 0 -24 16 -22 50 1 24 4 25 54
22 36 -2 61 2 77 12 13 9 33 16 45 16 13 0 24 11 34 35 8 19 21 35 28 35 7 0
28 -16 47 -35 38 -39 69 -44 93 -16 8 10 22 21 29 23 11 4 11 11 -3 34 -16 28
-21 29 -105 35 -74 5 -167 23 -182 35 -2 2 2 10 9 19 10 12 10 15 -1 15 -9 1
-8 4 4 11 10 6 29 34 42 62 26 57 35 135 41 359 3 127 2 137 -15 143 -10 3
-30 16 -43 28 -51 46 -88 67 -135 77 -46 10 -83 22 -128 40 -11 5 -36 11 -55
15 -19 3 -48 17 -64 32 -28 24 -29 26 -12 39 17 12 18 20 9 91 -8 58 -11 67
-12 36 -1 -54 -21 -57 -21 -3 0 22 -4 40 -10 40 -5 0 -10 6 -10 14 0 10 8 13
24 10 17 -3 28 3 41 22 11 17 13 29 7 33 -6 3 -14 19 -17 34 -8 29 -25 37 -25
12z m100 -541 c104 -4 130 -10 130 -30 0 -24 -21 -26 -136 -15 -60 6 -130 12
-156 13 -27 1 -48 5 -48 9 0 12 84 37 105 32 11 -3 58 -7 105 -9z m60 -181
c-1 -5 -10 -19 -20 -32 -17 -19 -26 -22 -55 -17 -19 4 -35 11 -35 15 0 5 -10
12 -22 16 -19 7 -14 9 27 15 74 10 105 11 105 3z m140 -372 c0 -15 -30 -41
-46 -41 -19 0 -18 6 8 30 23 21 38 26 38 11z m-430 -619 c0 -5 -7 -9 -15 -9
-8 0 -15 4 -15 9 0 4 7 8 15 8 8 0 15 -4 15 -8z m105 -59 c4 -17 2 -29 -4 -31
-18 -6 -14 -82 4 -82 8 0 15 -4 15 -10 0 -13 -26 -13 -51 0 -14 8 -19 21 -19
50 0 28 -4 40 -14 40 -8 0 -16 -3 -19 -7 -2 -5 -2 -2 0 6 2 7 -2 20 -8 27 -18
21 -1 34 46 34 38 0 44 -3 50 -27z m392 21 c-3 -3 -12 -4 -19 -1 -8 3 -5 6 6
6 11 1 17 -2 13 -5z"/>
<path d="M6525 10471 c-3 -5 -1 -12 5 -16 5 -3 10 1 10 9 0 18 -6 21 -15 7z"/>
<path d="M6353 10354 c-6 -13 -7 -24 -3 -24 9 0 25 39 18 45 -2 2 -8 -7 -15
-21z"/>
<path d="M7322 10262 c-8 -5 -19 -20 -26 -33 -11 -22 -9 -26 16 -41 15 -10 28
-24 28 -32 0 -8 11 -23 24 -33 13 -11 33 -38 45 -61 12 -23 26 -42 31 -42 6 0
10 -13 10 -30 0 -24 4 -30 21 -30 18 0 20 4 15 25 -4 14 -3 25 2 25 14 0 31
-22 26 -35 -6 -15 26 -25 84 -25 29 0 44 5 48 15 7 18 33 19 59 2 40 -26 129
-49 154 -40 23 9 23 10 -15 40 -22 16 -55 36 -74 43 -19 7 -53 19 -75 28 -22
8 -66 20 -97 26 -63 12 -73 24 -37 43 51 27 180 10 314 -40 38 -15 40 -14 43
5 5 26 -25 58 -55 58 -12 0 -23 4 -23 8 0 19 -154 73 -260 91 -36 7 -85 16
-110 21 -80 16 -135 21 -148 12z"/>
<path d="M5931 9977 c-6 -6 -11 -19 -11 -30 0 -10 -7 -25 -15 -33 -10 -11 -15
-36 -15 -80 0 -57 2 -64 20 -64 24 0 38 44 20 64 -9 12 -8 20 5 40 18 27 41
25 30 -2 -3 -8 0 -19 6 -23 10 -6 10 -16 1 -47 -7 -22 -12 -60 -12 -85 0 -25
-5 -47 -10 -49 -7 -2 -5 -11 4 -23 15 -21 16 -21 87 9 14 6 14 1 0 -58 -21
-84 -17 -194 7 -195 9 -1 37 -4 61 -7 29 -4 42 -3 37 4 -3 6 -2 13 4 17 12 7
11 123 -1 131 -5 3 -9 20 -9 38 0 25 -5 35 -20 39 -20 5 -28 41 -11 51 5 3 5
26 -1 53 -5 27 -6 63 -3 81 9 52 -22 136 -59 158 -35 22 -98 28 -115 11z m134
-446 c-9 -16 -25 -3 -18 15 4 10 9 12 15 6 6 -6 7 -15 3 -21z m-18 -88 c-3
-10 -5 -4 -5 12 0 17 2 24 5 18 2 -7 2 -21 0 -30z"/>
<path d="M6437 9893 c-4 -3 -7 -11 -7 -17 0 -6 5 -5 12 2 6 6 9 14 7 17 -3 3
-9 2 -12 -2z"/>
<path d="M8196 9751 c-3 -5 0 -11 7 -14 14 -5 21 -46 21 -122 0 -60 15 -75 33
-33 18 43 16 115 -4 149 -17 28 -46 38 -57 20z"/>
<path d="M5203 9703 c9 -2 23 -2 30 0 6 3 -1 5 -18 5 -16 0 -22 -2 -12 -5z"/>
<path d="M5330 9700 c20 -13 80 -13 80 0 0 6 -21 10 -47 10 -35 0 -44 -3 -33
-10z"/>
<path d="M5523 9693 c37 -2 96 -2 130 0 34 2 4 3 -68 3 -71 0 -99 -1 -62 -3z"/>
<path d="M8062 9539 c2 -56 7 -84 16 -87 7 -2 11 2 10 9 -2 7 7 18 20 24 35
16 24 63 -26 113 l-23 23 3 -82z"/>
<path d="M8408 9563 c7 -3 16 -2 19 1 4 3 -2 6 -13 5 -11 0 -14 -3 -6 -6z"/>
<path d="M6940 9311 c0 -6 5 -13 10 -16 6 -3 10 1 10 9 0 9 -4 16 -10 16 -5 0
-10 -4 -10 -9z"/>
<path d="M5433 9103 c9 -2 23 -2 30 0 6 3 -1 5 -18 5 -16 0 -22 -2 -12 -5z"/>
<path d="M5853 9093 c9 -2 23 -2 30 0 6 3 -1 5 -18 5 -16 0 -22 -2 -12 -5z"/>
<path d="M5947 9083 c18 -2 50 -2 70 0 21 2 7 4 -32 4 -38 0 -55 -2 -38 -4z"/>
<path d="M7948 8993 c12 -2 30 -2 40 0 9 3 -1 5 -23 4 -22 0 -30 -2 -17 -4z"/>
<path d="M8068 8983 c17 -2 47 -2 65 0 17 2 3 4 -33 4 -36 0 -50 -2 -32 -4z"/>
<path d="M8408 8973 c7 -3 16 -2 19 1 4 3 -2 6 -13 5 -11 0 -14 -3 -6 -6z"/>
<path d="M8930 8954 c32 -7 234 -10 210 -3 -14 4 -70 7 -125 7 -55 0 -93 -2
-85 -4z"/>
<path d="M9253 8943 c26 -2 67 -2 90 0 23 2 2 3 -48 3 -49 0 -68 -1 -42 -3z"/>
<path d="M6302 8620 c0 -14 2 -19 5 -12 2 6 2 18 0 25 -3 6 -5 1 -5 -13z"/>
<path d="M7382 8618 c-17 -17 -15 -28 6 -28 24 0 32 8 25 26 -6 17 -15 18 -31
2z"/>
<path d="M7790 8572 c0 -5 7 -24 16 -42 22 -44 20 -171 -5 -274 -34 -139 -50
-227 -60 -333 -6 -56 -18 -123 -27 -150 -26 -78 -88 -186 -169 -293 -42 -55
-81 -115 -87 -133 -6 -18 -27 -45 -46 -61 -33 -28 -62 -79 -62 -110 0 -8 10
-16 23 -18 26 -4 35 -45 17 -79 -12 -21 -16 -21 -165 -17 l-153 4 -80 39 c-79
40 -112 46 -112 20 0 -18 -23 -24 -90 -23 -82 0 -81 1 -76 -29 2 -16 5 -36 5
-45 1 -16 14 -18 121 -18 119 0 202 -9 335 -37 39 -8 90 -17 115 -21 44 -7 45
-8 48 -47 2 -22 -3 -48 -10 -57 -14 -18 -11 -18 -283 22 -44 7 -129 17 -190
23 -60 7 -116 16 -123 20 -14 9 -18 1 -26 -60 -6 -45 -2 -49 44 -45 32 3 301
-40 407 -65 88 -20 114 -30 119 -45 7 -23 -4 -75 -17 -84 -6 -3 -41 1 -77 9
-69 16 -224 40 -397 61 -55 7 -108 16 -118 20 -10 5 -153 9 -318 10 -222 1
-299 4 -299 13 0 6 14 12 33 12 97 0 449 24 506 34 59 11 66 15 69 37 7 72 11
400 4 400 -22 0 -44 -128 -43 -242 0 -15 -4 -30 -9 -33 -6 -4 -10 -17 -10 -30
0 -30 -14 -39 -31 -19 -10 12 -10 25 -2 57 8 29 8 46 1 54 -6 7 -7 27 -4 45
16 79 18 118 20 378 0 151 5 281 9 288 6 9 -23 12 -135 12 -79 0 -148 4 -154
9 -5 4 -37 14 -72 21 -59 12 -63 15 -60 38 5 43 -21 37 -42 -11 -19 -44 -30
-131 -17 -144 4 -3 17 -7 30 -9 33 -4 33 -4 19 -13 -17 -10 -30 -151 -33 -346
-1 -77 -8 -189 -15 -250 -8 -60 -14 -132 -14 -160 0 -101 -15 -114 -105 -94
l-55 12 0 49 0 48 36 0 c55 0 74 15 74 59 0 35 -3 39 -40 51 -22 7 -40 19 -40
26 0 8 -6 11 -15 8 -11 -5 -15 1 -15 24 0 31 17 42 82 58 31 7 38 32 24 82 -9
31 -13 33 -40 29 -32 -5 -226 -60 -260 -73 -18 -7 -19 -2 -12 164 6 149 5 172
-8 172 -19 0 -30 -17 -14 -22 8 -3 5 -19 -12 -54 l-24 -49 -8 40 c-5 22 -11
92 -12 155 -2 63 -9 154 -16 201 l-14 86 -34 1 c-38 2 -114 -19 -180 -49 -23
-10 -43 -18 -45 -17 -1 1 -15 -5 -32 -15 -16 -9 -58 -26 -93 -37 -35 -11 -86
-36 -114 -55 -27 -19 -65 -39 -84 -44 -19 -5 -50 -23 -70 -40 -19 -17 -39 -31
-44 -31 -5 0 -35 -12 -67 -27 -32 -14 -60 -27 -63 -28 -21 -7 -52 -20 -90 -37
-97 -44 -158 -66 -239 -85 -35 -9 -71 -23 -81 -33 -9 -9 -40 -20 -68 -24 -28
-4 -55 -12 -59 -19 -4 -7 -20 -17 -34 -24 -35 -15 -48 -72 -64 -278 -7 -93
-18 -195 -24 -225 -15 -79 -19 -241 -10 -429 7 -136 6 -169 -7 -192 -13 -27
-22 -94 -43 -334 -12 -133 -4 -537 14 -705 23 -222 27 -357 14 -465 -7 -55
-12 -125 -12 -155 2 -75 14 -200 20 -200 3 0 16 9 30 20 26 20 63 27 63 11 0
-11 -59 -39 -99 -47 -35 -7 -35 -9 -51 -164 -13 -121 -9 -154 27 -232 29 -64
41 -72 81 -57 28 12 98 23 72 12 -32 -13 -66 -46 -82 -81 -14 -27 -18 -61 -18
-141 0 -121 18 -198 76 -326 98 -216 123 -247 260 -318 63 -32 108 -64 145
-102 29 -30 58 -55 64 -55 7 0 26 -18 44 -40 29 -36 55 -56 185 -142 38 -26
108 -46 268 -78 69 -14 72 -20 59 -132 -6 -45 -11 -125 -12 -176 -2 -68 -6
-95 -16 -99 -7 -3 -13 -14 -13 -24 0 -10 -4 -19 -8 -19 -8 0 -32 -101 -32
-137 0 -13 -8 -24 -21 -28 -11 -4 -18 -13 -15 -20 2 -7 -3 -20 -13 -29 -10 -9
-23 -35 -30 -57 -7 -23 -15 -47 -18 -55 -4 -12 372 -14 2582 -14 l2588 0 -6
38 c-28 184 -39 228 -67 271 -17 24 -30 49 -30 55 0 19 -59 379 -74 451 -8 39
-21 131 -30 205 -21 167 -31 238 -62 410 -13 74 -30 171 -38 215 -8 46 -10 84
-5 89 5 6 23 5 46 -2 21 -6 83 -18 138 -25 55 -8 154 -29 219 -46 115 -31 125
-32 280 -28 156 3 453 35 532 56 22 6 86 13 144 16 127 6 173 15 225 46 22 13
56 33 74 44 78 46 232 169 288 229 88 93 108 140 108 251 0 89 -7 120 -58 270
-19 54 -21 93 -27 371 l-6 311 -29 56 c-17 31 -36 57 -43 57 -7 0 -42 31 -78
70 -36 38 -75 72 -87 76 -28 9 -92 50 -135 86 -18 15 -38 28 -44 28 -23 0
-155 90 -179 122 -13 18 -53 65 -89 104 -53 58 -80 78 -150 111 -47 23 -96 44
-110 48 -14 4 -45 18 -70 31 -25 13 -49 24 -53 24 -19 0 -46 48 -52 90 -12 92
-29 147 -65 220 -41 82 -82 130 -147 174 -24 16 -43 34 -43 40 0 23 52 161 66
177 45 49 -42 293 -159 447 l-41 54 -8 141 c-5 77 -14 157 -21 176 -18 53
-164 309 -191 336 -21 21 -137 75 -161 75 -11 1 -38 9 -60 20 -22 11 -51 19
-64 20 -13 0 -38 9 -55 19 -17 11 -49 23 -71 26 -22 4 -44 11 -50 15 -9 6
-175 62 -240 80 -16 5 -70 16 -120 25 -49 8 -106 20 -125 25 -19 6 -82 14
-139 19 -69 7 -123 18 -165 34 -141 57 -260 89 -343 92 -90 3 -105 8 -96 30 4
11 -3 15 -25 15 -32 0 -193 47 -202 59 -3 4 -34 28 -70 54 -120 88 -218 173
-321 279 -45 47 -59 56 -59 40z m-1567 -852 c20 -8 36 -18 34 -23 -3 -9 -62
-34 -104 -44 -19 -4 -23 -1 -23 18 0 22 38 72 49 67 3 -2 23 -10 44 -18z
m-747 -62 c-9 -13 -19 -30 -23 -38 -10 -24 -84 -122 -89 -117 -2 2 15 33 38
69 24 36 49 74 56 86 7 12 17 22 23 22 7 0 5 -9 -5 -22z m184 -274 c0 -8 -4
-14 -10 -14 -5 0 -10 9 -10 21 0 11 5 17 10 14 6 -3 10 -13 10 -21z m803 -696
c-23 -8 -43 -8 -65 0 -30 9 -27 10 32 10 59 0 62 -1 33 -10z m-195 -74 c22 -4
32 -12 31 -23 -1 -9 -1 -22 0 -28 1 -16 53 -17 68 -2 8 8 24 9 55 2 24 -5 68
-7 98 -5 30 3 134 5 230 5 137 -1 196 -6 273 -22 201 -42 210 -48 194 -110
l-12 -43 -40 5 c-22 3 -71 11 -110 17 -38 6 -104 15 -145 21 -41 5 -121 17
-176 27 -56 10 -119 18 -140 18 l-38 -1 -13 -70 c-8 -47 -9 -73 -2 -80 6 -6
12 -2 15 13 6 20 12 22 79 22 84 0 225 -18 240 -30 10 -8 76 -21 199 -39 38
-5 74 -16 81 -23 7 -8 10 -30 7 -57 l-4 -44 -77 6 c-80 7 -122 12 -211 26 -30
5 -102 13 -159 16 -126 8 -146 15 -156 52 l-8 28 -8 -35 c-4 -19 -12 -140 -18
-270 -7 -129 -16 -275 -22 -323 -8 -74 -7 -91 6 -110 8 -12 15 -17 16 -12 7
79 17 87 94 76 33 -5 107 -13 165 -16 58 -4 128 -13 157 -21 51 -15 52 -16 59
-60 3 -25 3 -49 -2 -54 -10 -10 -367 12 -513 31 -101 14 -105 17 -105 79 0 19
-6 40 -13 45 -8 6 -15 23 -16 39 -1 16 -8 31 -14 33 -8 3 -11 -6 -8 -26 2 -22
-1 -31 -11 -31 -10 0 -14 -14 -14 -54 0 -51 -2 -54 -27 -59 -16 -3 -48 -1 -73
3 -25 5 -84 14 -133 21 -48 6 -89 15 -92 19 -3 5 -8 29 -11 54 l-7 46 136 0
136 0 -3 63 c-3 52 -6 62 -22 64 -10 1 -72 5 -136 8 l-118 7 0 54 0 54 134 0
133 0 6 51 c4 29 4 56 1 60 -3 5 -28 9 -57 9 -28 0 -87 5 -132 12 l-81 11 6
46 5 46 125 -4 c69 -1 122 0 118 4 -4 4 -1 14 7 22 9 8 15 33 15 59 l0 44
-144 0 c-86 0 -147 4 -151 10 -3 6 0 10 8 10 18 0 29 69 14 87 -14 19 5 22
148 25 l130 3 3 44 c2 28 -1 47 -10 52 -7 5 -49 9 -94 9 -116 0 -174 9 -167
26 3 8 1 14 -4 14 -7 0 -10 33 -5 64 2 10 253 1 310 -10z m547 -524 c72 -7
148 -18 170 -26 22 -7 51 -14 65 -14 48 -1 66 -31 47 -80 -11 -30 -12 -30 -67
-25 -64 7 -291 25 -402 32 l-78 5 0 42 c0 22 3 52 7 64 6 23 9 24 67 18 34 -3
120 -10 191 -16z m-110 -225 c50 -4 110 -10 135 -15 25 -5 82 -14 128 -21 l82
-11 0 -59 0 -59 -42 0 c-46 0 -436 38 -454 44 -6 3 -10 19 -9 38 5 107 2 99
38 94 17 -3 73 -8 122 -11z m1301 -356 c44 -21 60 -23 179 -20 85 2 159 -3
215 -13 47 -8 132 -18 190 -21 57 -4 109 -10 115 -15 6 -5 38 -12 73 -16 34
-3 62 -11 62 -16 0 -5 13 -20 29 -34 16 -13 32 -35 35 -49 4 -14 13 -25 20
-25 9 0 17 -16 21 -41 4 -23 13 -56 21 -74 10 -24 10 -35 2 -43 -9 -9 -7 -16
5 -30 9 -10 14 -22 10 -26 -4 -4 1 -4 12 0 18 7 18 6 6 -9 -12 -15 -11 -17 3
-17 9 0 16 -7 16 -16 0 -10 6 -14 14 -11 20 8 28 -4 15 -20 -9 -10 -6 -13 15
-13 16 0 26 -5 26 -15 0 -8 4 -15 10 -15 10 0 28 -31 74 -129 17 -34 24 -62
20 -77 -4 -17 0 -31 11 -44 20 -22 23 -105 11 -225 -4 -33 -8 -87 -10 -120 -4
-63 -19 -115 -34 -115 -5 0 -17 9 -27 20 -10 12 -25 18 -32 16 -15 -6 -15 -4
-7 18 3 9 17 16 31 16 15 0 23 5 21 13 -6 18 -91 58 -134 62 -53 5 -94 22 -94
39 0 14 -26 29 -38 22 -12 -7 -14 245 -2 259 13 15 -3 29 -44 39 -17 4 -30 15
-34 28 -5 21 -6 21 -13 2 -7 -16 -8 -17 -8 -1 -1 18 -41 25 -41 7 0 -5 -5 -10
-11 -10 -5 0 -7 5 -4 10 3 6 1 10 -4 10 -6 0 -11 -4 -11 -9 0 -16 -40 -23
-142 -26 -76 -1 -98 1 -98 12 0 7 -3 12 -7 12 -21 -3 -31 3 -29 17 0 9 -8 21
-19 28 -11 6 -22 13 -25 16 -10 10 -32 11 -44 2 -6 -6 -29 -9 -51 -8 -29 1
-41 6 -43 19 -4 20 37 40 53 26 6 -4 29 -2 52 6 22 8 60 14 84 14 24 0 97 1
161 1 94 1 123 -2 146 -16 23 -13 33 -14 48 -6 13 8 14 11 5 12 -11 0 -10 4 4
20 9 10 15 26 12 34 -4 10 2 20 13 26 21 11 26 39 11 56 -28 31 -31 97 -6 156
5 13 -4 22 -37 40 -38 20 -57 23 -168 24 -289 2 -391 5 -413 13 -45 19 -62 24
-69 23 -3 -1 -12 5 -18 13 -7 8 -27 15 -44 15 -19 0 -42 9 -54 20 -22 21 -26
31 -22 64 1 14 -3 17 -15 12 -9 -3 -26 1 -38 9 -28 19 -97 20 -97 1 0 -17 -24
-28 -45 -20 -40 16 -21 93 28 114 33 15 99 5 153 -21z m-1698 -334 c1 -135 -1
-235 -7 -235 -14 0 -20 35 -9 54 18 32 2 43 -69 49 -161 14 -199 20 -173 28
24 7 24 7 3 8 -18 1 -23 7 -23 29 0 15 -5 33 -12 40 -9 9 20 12 130 12 l142 0
0 65 0 65 -87 1 c-49 0 -110 4 -137 7 -49 7 -49 7 -53 46 -1 22 -7 44 -13 50
-24 24 -2 27 148 21 l157 -5 3 -235z m102 171 c-13 -34 -13 -49 0 -41 10 6 16
-50 13 -120 -1 -16 -4 -217 -7 -445 -3 -228 -8 -430 -10 -447 -3 -18 0 -35 5
-38 11 -7 10 -106 -1 -150 l-8 -30 -2 30 -2 30 -9 -33 c-12 -42 -30 -32 -19
11 15 57 19 166 6 164 -8 -1 -10 120 -8 458 3 488 7 584 25 627 15 35 31 20
17 -16z m443 -7 c46 -7 67 -15 67 -25 0 -8 7 -14 16 -14 12 0 14 -9 12 -37
l-3 -38 -115 3 c-63 1 -171 10 -240 18 -139 18 -135 15 -124 91 4 27 9 32 37
35 36 3 247 -16 350 -33z m1067 -69 c0 -5 3 -9 8 -9 43 7 45 -41 2 -71 -25
-18 -32 -19 -50 -8 -18 11 -23 10 -36 -6 -7 -11 -17 -16 -21 -11 -5 4 -3 10 4
12 9 3 9 9 1 22 -14 24 -3 68 20 74 32 9 72 7 72 -3z m560 -100 c0 -5 25 -10
57 -10 31 0 80 -8 110 -17 51 -16 53 -18 53 -53 l0 -36 -102 -16 c-57 -10
-114 -20 -127 -24 -17 -5 -22 -4 -17 4 10 16 -9 22 -80 26 -95 6 -125 11 -133
25 -5 7 -12 12 -17 10 -5 -1 -14 9 -21 22 -7 13 -20 26 -30 30 -9 3 16 9 57
13 59 5 164 20 243 35 4 0 7 -3 7 -9z m-1911 -50 c19 -5 86 -14 150 -20 171
-14 206 -32 193 -97 -3 -19 -11 -23 -41 -25 -65 -3 -135 4 -196 18 -33 7 -95
14 -138 14 l-78 0 3 52 c3 50 5 53 33 59 17 4 32 7 35 8 3 0 20 -3 39 -9z
m-371 -211 c47 -8 67 -8 75 0 27 27 37 12 37 -58 l0 -69 -42 4 c-24 2 -77 6
-118 9 -42 4 -81 10 -87 13 -7 4 -16 27 -21 50 -11 46 -15 41 53 55 33 8 36 7
103 -4z m527 -55 c167 -25 165 -25 165 -44 0 -36 -12 -50 -41 -50 -16 0 -29
-5 -29 -11 0 -7 -19 -9 -57 -5 -149 14 -221 24 -260 36 -38 12 -41 16 -45 51
l-4 39 86 0 c47 -1 130 -8 185 -16z m-463 -204 l49 0 -3 -50 c-2 -32 -8 -50
-15 -50 -7 0 -13 -6 -14 -12 0 -8 -2 -9 -5 -2 -3 7 -34 9 -89 6 -62 -3 -85 -1
-85 7 0 7 -7 19 -15 27 -18 19 -20 70 -2 78 6 3 39 3 71 1 32 -3 81 -5 108 -5z
m2431 -10 c20 -11 44 -20 52 -20 16 0 19 -9 9 -34 -7 -19 -30 -21 -37 -3 -5
13 -37 -53 -37 -78 0 -8 -9 -15 -20 -15 -11 0 -20 -4 -20 -10 0 -13 -50 -13
-70 0 -11 7 -5 10 25 11 33 2 35 3 10 6 -16 2 -44 10 -61 18 -17 8 -49 17 -70
21 -49 8 -57 12 -50 30 3 9 -1 14 -12 15 -14 0 -14 2 2 8 18 7 18 8 -5 14 -13
4 -38 7 -55 7 -53 0 -47 14 13 31 39 12 97 18 173 18 97 1 121 -2 153 -19z
m-1953 -44 c43 -8 58 -15 45 -18 -11 -4 -1 -4 23 -1 46 6 46 6 32 -31 -7 -19
-6 -26 2 -26 9 0 9 -3 0 -12 -11 -11 -108 -19 -125 -10 -5 2 0 10 9 16 17 13
12 36 -7 36 -6 0 -7 -4 -4 -10 3 -5 -1 -10 -9 -10 -9 0 -16 -7 -16 -15 0 -8
-4 -15 -10 -15 -5 0 -10 7 -10 17 0 15 -2 15 -19 -1 -15 -13 -20 -14 -24 -4
-4 10 -7 11 -18 1 -15 -15 -85 -18 -93 -4 -3 4 -18 11 -34 14 -24 5 -28 10
-29 46 -2 33 2 41 20 45 33 7 193 -4 267 -18z m-440 -86 c0 -5 -4 -10 -10 -10
-5 0 -10 5 -10 10 0 6 5 10 10 10 6 0 10 -4 10 -10z m8 -154 c4 -44 -14 -82
-32 -67 -9 7 -16 7 -23 0 -7 -7 -30 -9 -61 -4 -53 7 -62 18 -62 77 0 32 11 36
105 32 l70 -3 3 -35z m200 17 c-10 -2 -28 -2 -40 0 -13 2 -5 4 17 4 22 1 32
-1 23 -4z m132 -13 l-85 -6 85 -4 c47 -2 91 -3 97 -3 7 1 10 -3 7 -8 -3 -5 0
-9 7 -9 7 0 10 -3 7 -6 -4 -3 -15 -1 -26 5 -19 10 -19 8 -11 -26 5 -26 4 -40
-4 -46 -10 -7 -95 -4 -237 7 -26 2 -30 24 -7 38 7 4 9 8 5 8 -4 0 -4 10 1 22
11 30 38 36 151 35 l95 -1 -85 -6z m138 -95 c-24 -12 -38 -10 -38 6 0 5 9 9
21 9 13 0 18 4 13 13 -5 8 -2 7 9 -2 16 -13 16 -15 -5 -26z m-470 -151 c-3
-27 -4 -28 -68 -25 -43 2 -68 7 -73 17 -4 8 -16 14 -25 15 -47 2 30 16 96 18
l73 2 -3 -27z m260 -1 c-21 -2 -57 -2 -80 0 -24 2 -7 4 37 4 44 0 63 -2 43 -4z
m-411 -9 c-3 -3 -12 -4 -19 -1 -8 3 -5 6 6 6 11 1 17 -2 13 -5z m551 -5 c44
-11 82 -33 71 -43 -12 -11 -49 -16 -49 -7 0 15 -47 14 -56 -1 -5 -8 -11 -6
-19 6 -12 15 -14 15 -28 1 -20 -20 -28 -19 -20 1 6 15 4 15 -19 0 -13 -9 -27
-14 -29 -12 -2 3 -24 7 -48 10 -45 5 -70 20 -57 33 4 5 49 11 99 14 51 3 96 6
100 7 5 1 29 -3 55 -9z m-960 -26 c-10 -2 -26 -2 -35 0 -10 3 -2 5 17 5 19 0
27 -2 18 -5z m-172 -20 c-3 -4 -25 -9 -48 -12 l-42 -6 1 -43 c1 -37 -2 -45
-23 -54 -14 -6 -21 -14 -17 -17 11 -8 33 -49 33 -60 0 -15 -98 -40 -196 -51
-49 -5 -116 -14 -149 -20 -33 -6 -76 -14 -95 -17 -48 -9 -110 -61 -110 -93 0
-14 -4 -32 -10 -40 -8 -13 -10 -12 -15 1 -3 9 -8 29 -9 45 l-4 29 -68 -3 c-77
-4 -139 -28 -194 -76 -19 -16 -33 -31 -30 -32 3 -2 -11 -24 -31 -51 -78 -104
-135 -192 -177 -273 -50 -97 -67 -120 -56 -75 12 52 69 167 117 238 26 37 47
72 47 77 0 6 5 10 10 10 6 0 10 5 10 11 0 6 23 50 52 98 53 88 99 141 121 141
7 0 30 12 52 27 57 39 199 110 275 138 45 16 98 26 170 30 155 10 265 29 255
45 -6 9 38 28 80 33 54 7 58 7 51 0z m839 -33 c3 -5 1 -10 -4 -10 -6 0 -11 5
-11 10 0 6 2 10 4 10 3 0 8 -4 11 -10z m-1874 -24 c-13 -14 -37 -30 -54 -37
-18 -7 -34 -16 -37 -19 -11 -13 -162 -102 -166 -97 -6 6 50 48 120 88 179 104
169 99 137 65z m5464 -61 c19 -31 35 -58 35 -60 0 -9 -67 -5 -99 6 -31 11 -32
13 -26 53 9 52 12 56 35 56 13 0 32 -20 55 -55z m176 26 c30 -30 40 -83 18
-96 -14 -9 -58 32 -73 70 -25 59 7 74 55 26z m-3764 -43 c-2 -13 -4 -5 -4 17
-1 22 1 32 4 23 2 -10 2 -28 0 -40z m-174 -5 c3 -5 -19 -8 -48 -8 -29 0 -51 3
-48 8 2 4 24 7 48 7 24 0 46 -3 48 -7z m-136 -25 c-3 -8 -6 -5 -6 6 -1 11 2
17 5 13 3 -3 4 -12 1 -19z m48 -8 c3 -5 -1 -10 -9 -10 -9 0 -16 5 -16 10 0 6
4 10 9 10 6 0 13 -4 16 -10z m73 3 c-10 -2 -28 -2 -40 0 -13 2 -5 4 17 4 22 1
32 -1 23 -4z m328 -2 c-17 -7 -18 -8 -3 -14 9 -3 19 -2 22 3 7 12 105 13 123
1 10 -6 8 -13 -7 -32 -11 -13 -20 -18 -21 -11 0 6 -11 12 -25 12 -14 0 -25 4
-25 9 0 12 -124 1 -129 -11 -2 -5 -10 0 -18 12 -20 29 -4 40 57 39 31 0 39 -3
26 -8z m-75 -262 c-5 -13 -10 -19 -10 -12 -1 15 10 45 15 40 3 -2 0 -15 -5
-28z m-1551 -9 c0 -5 -5 -10 -11 -10 -5 0 -7 5 -4 10 3 6 8 10 11 10 2 0 4 -4
4 -10z m1607 -6 c-3 -3 -12 -4 -19 -1 -8 3 -5 6 6 6 11 1 17 -2 13 -5z m-1569
-32 c46 -10 41 -59 -12 -116 -38 -42 -110 -62 -121 -34 -13 34 68 173 95 162
8 -4 25 -9 38 -12z m-294 -618 c9 -3 16 -15 16 -25 0 -14 -7 -19 -29 -19 -33
0 -46 13 -37 35 6 16 24 19 50 9z"/>
<path d="M6346 5941 c-4 -5 -2 -12 3 -15 5 -4 12 -2 15 3 4 5 2 12 -3 15 -5 4
-12 2 -15 -3z"/>
<path d="M5981 5634 c0 -11 3 -14 6 -6 3 7 2 16 -1 19 -3 4 -6 -2 -5 -13z"/>
<path d="M8618 5413 c7 -3 16 -2 19 1 4 3 -2 6 -13 5 -11 0 -14 -3 -6 -6z"/>
<path d="M6640 4309 c0 -5 5 -7 10 -4 6 3 10 8 10 11 0 2 -4 4 -10 4 -5 0 -10
-5 -10 -11z"/>
<path d="M6648 4093 c7 -3 16 -2 19 1 4 3 -2 6 -13 5 -11 0 -14 -3 -6 -6z"/>
<path d="M6498 3873 c6 -2 18 -2 25 0 6 3 1 5 -13 5 -14 0 -19 -2 -12 -5z"/>
<path d="M5338 8493 c7 -3 16 -2 19 1 4 3 -2 6 -13 5 -11 0 -14 -3 -6 -6z"/>
<path d="M7686 8373 c-6 -14 -5 -15 5 -6 7 7 10 15 7 18 -3 3 -9 -2 -12 -12z"/>
<path d="M6656 7308 c-5 -16 -5 -36 0 -45 7 -16 8 -15 11 5 3 12 3 32 0 45 -3
21 -4 20 -11 -5z"/>
<path d="M5955 6850 c3 -5 10 -10 16 -10 5 0 9 5 9 10 0 6 -7 10 -16 10 -8 0
-12 -4 -9 -10z"/>
<path d="M1658 3773 c7 -3 16 -2 19 1 4 3 -2 6 -13 5 -11 0 -14 -3 -6 -6z"/>
<path d="M1793 3769 c24 -6 45 -5 55 1 12 7 2 9 -38 9 -55 -1 -55 -1 -17 -10z"/>
<path d="M1895 3770 c22 -10 102 -13 92 -4 -3 3 -30 8 -59 10 -37 2 -47 1 -33
-6z"/>
<path d="M2015 3760 c21 -9 152 -14 143 -5 -3 3 -41 7 -84 10 -51 3 -72 1 -59
-5z"/>
<path d="M11870 3538 c0 -4 23 -8 50 -8 28 0 50 4 50 9 0 6 -22 9 -50 9 -27
-1 -50 -5 -50 -10z"/>
<path d="M18 3443 c12 -2 32 -2 45 0 12 2 2 4 -23 4 -25 0 -35 -2 -22 -4z"/>
<path d="M12725 3130 c28 -12 37 -12 30 0 -3 6 -16 10 -28 9 -21 0 -21 -1 -2
-9z"/>
<path d="M77 3033 c46 -2 120 -2 166 0 45 1 8 3 -83 3 -91 0 -128 -2 -83 -3z"/>
<path d="M527 3023 c51 -2 135 -2 185 0 51 1 10 3 -92 3 -102 0 -143 -2 -93
-3z"/>
<path d="M28 2853 c18 -2 45 -2 60 0 15 2 0 4 -33 4 -33 0 -45 -2 -27 -4z"/>
<path d="M430 2840 c0 -5 5 -10 10 -10 6 0 10 5 10 10 0 6 -4 10 -10 10 -5 0
-10 -4 -10 -10z"/>
<path d="M12803 2743 c26 -2 68 -2 95 0 26 2 4 3 -48 3 -52 0 -74 -1 -47 -3z"/>
<path d="M335 2669 c-41 -4 -14 -6 84 -7 79 -1 142 0 140 3 -8 7 -160 10 -224
4z"/>
<path d="M13 2663 c9 -2 25 -2 35 0 9 3 1 5 -18 5 -19 0 -27 -2 -17 -5z"/>
<path d="M913 2653 c9 -2 25 -2 35 0 9 3 1 5 -18 5 -19 0 -27 -2 -17 -5z"/>
<path d="M12703 2403 c26 -2 67 -2 90 0 23 2 2 3 -48 3 -49 0 -68 -1 -42 -3z"/>
<path d="M12883 2403 c20 -2 54 -2 75 0 20 2 3 4 -38 4 -41 0 -58 -2 -37 -4z"/>
<path d="M13098 2403 c7 -3 16 -2 19 1 4 3 -2 6 -13 5 -11 0 -14 -3 -6 -6z"/>
<path d="M13448 2403 c7 -3 16 -2 19 1 4 3 -2 6 -13 5 -11 0 -14 -3 -6 -6z"/>
<path d="M13708 2403 c7 -3 16 -2 19 1 4 3 -2 6 -13 5 -11 0 -14 -3 -6 -6z"/>
<path d="M13758 2403 c12 -2 30 -2 40 0 9 3 -1 5 -23 4 -22 0 -30 -2 -17 -4z"/>
<path d="M4862 2358 c-18 -18 -15 -28 9 -28 19 0 20 -4 14 -40 -9 -51 14 -56
35 -7 7 17 15 35 18 40 2 4 -4 7 -14 7 -9 0 -14 3 -11 7 9 8 -12 33 -27 33 -7
0 -17 -5 -24 -12z"/>
<path d="M4631 2334 c0 -11 3 -14 6 -6 3 7 2 16 -1 19 -3 4 -6 -2 -5 -13z"/>
<path d="M50 2290 l-55 -5 70 -7 c39 -3 86 -3 105 1 35 8 35 8 -15 12 -27 2
-75 2 -105 -1z"/>
<path d="M460 2283 c0 -5 -55 -7 -122 -6 -156 3 -142 -4 20 -10 98 -3 122 -1
122 9 0 8 -4 14 -10 14 -5 0 -10 -3 -10 -7z"/>
<path d="M685 2259 c-16 -4 39 -7 124 -8 85 0 152 1 149 4 -7 8 -240 11 -273
4z"/>
<path d="M997 2239 c4 -13 8 -18 11 -10 2 7 -1 18 -6 23 -8 8 -9 4 -5 -13z"/>
<path d="M1625 2250 c3 -5 10 -10 16 -10 5 0 9 5 9 10 0 6 -7 10 -16 10 -8 0
-12 -4 -9 -10z"/>
<path d="M4886 2176 c2 -16 4 -41 4 -57 0 -19 5 -29 15 -29 11 0 15 11 15 40
0 28 -4 40 -14 40 -8 0 -17 8 -19 18 -2 9 -3 4 -1 -12z"/>
<path d="M67 2162 c-93 -4 -86 -23 8 -20 41 1 75 5 75 9 0 13 -12 14 -83 11z"/>
<path d="M180 2140 c20 -13 113 -13 105 0 -3 6 -32 10 -63 10 -41 0 -53 -3
-42 -10z"/>
<path d="M12800 2140 c0 -5 5 -10 10 -10 6 0 10 5 10 10 0 6 -4 10 -10 10 -5
0 -10 -4 -10 -10z"/>
<path d="M340 2130 c34 -11 148 -12 154 -1 3 4 -36 8 -87 9 -60 0 -83 -3 -67
-8z"/>
<path d="M608 2129 c-5 -3 59 -10 144 -14 84 -4 168 -9 186 -10 18 -1 35 2 38
7 3 4 -37 8 -89 8 -51 0 -97 3 -101 8 -9 8 -164 10 -178 1z"/>
<path d="M997 2123 c-2 -5 0 -39 3 -78 l7 -70 1 78 c2 71 -1 89 -11 70z"/>
<path d="M95 2111 c-3 -5 -1 -12 5 -16 5 -3 10 1 10 9 0 18 -6 21 -15 7z"/>
<path d="M460 2041 c0 -35 3 -62 6 -58 12 12 16 86 5 104 -8 14 -10 4 -11 -46z"/>
<path d="M4900 2065 c-10 -11 -15 -13 -20 -5 -5 8 -18 5 -44 -12 l-36 -23 0
-87 c0 -72 -3 -88 -15 -88 -8 0 -15 -4 -15 -10 0 -5 -18 -21 -39 -36 -68 -45
-49 -54 110 -54 l139 0 0 50 c0 28 -4 50 -10 50 -6 0 -10 31 -10 73 0 53 -6
85 -20 115 -11 23 -22 42 -24 42 -2 0 -9 -7 -16 -15z"/>
<path d="M781 2054 c0 -11 3 -14 6 -6 3 7 2 16 -1 19 -3 4 -6 -2 -5 -13z"/>
<path d="M1032 2040 c0 -14 2 -19 5 -12 2 6 2 18 0 25 -3 6 -5 1 -5 -13z"/>
<path d="M1080 2040 c0 -13 7 -20 20 -20 13 0 20 7 20 20 0 13 -7 20 -20 20
-13 0 -20 -7 -20 -20z"/>
<path d="M13598 2033 c18 -2 45 -2 60 0 15 2 0 4 -33 4 -33 0 -45 -2 -27 -4z"/>
<path d="M13763 2033 c32 -2 81 -2 110 0 29 2 3 3 -58 3 -60 0 -84 -1 -52 -3z"/>
<path d="M12800 2020 c0 -12 8 -12 35 0 18 8 17 9 -7 9 -16 1 -28 -3 -28 -9z"/>
<path d="M12893 2023 c9 -2 25 -2 35 0 9 3 1 5 -18 5 -19 0 -27 -2 -17 -5z"/>
<path d="M13115 2020 c3 -5 8 -10 11 -10 2 0 4 5 4 10 0 6 -5 10 -11 10 -5 0
-7 -4 -4 -10z"/>
<path d="M1027 1996 c-11 -29 -8 -74 6 -79 28 -10 -9 -22 -66 -22 -118 1 -185
9 -180 21 5 13 158 28 175 18 6 -4 9 -1 6 7 -4 12 -37 13 -189 9 -101 -3 -217
-5 -256 -5 -60 0 -73 -3 -73 -16 0 -13 -13 -16 -65 -17 -36 -1 -65 3 -65 8 0
6 3 9 8 9 24 -4 35 2 24 13 -12 12 -29 14 -167 17 -144 4 -185 2 -185 -8 0 -6
21 -12 48 -14 l47 -3 -47 -2 c-27 -1 -48 -6 -48 -11 0 -13 71 -17 150 -9 36 3
70 2 75 -2 10 -8 229 -21 425 -25 52 -1 161 -5 242 -10 l147 -8 -6 -29 c-4
-21 -2 -28 8 -26 9 2 15 -8 17 -29 3 -33 25 -45 35 -20 4 10 6 10 6 0 1 -10
37 -13 146 -13 109 0 145 3 145 13 0 8 4 7 10 -3 16 -24 31 8 23 50 -3 19 -6
48 -7 65 -1 19 -6 30 -16 31 -39 3 -41 4 -36 27 3 12 3 16 0 10 -7 -15 -84
-18 -84 -3 0 6 -35 10 -84 10 -47 0 -88 -4 -91 -10 -11 -18 -33 -11 -38 13 -4
12 -12 31 -20 41 -13 17 -14 18 -20 2z m-867 -66 c0 -5 -2 -10 -4 -10 -3 0 -8
5 -11 10 -3 6 -1 10 4 10 6 0 11 -4 11 -10z m405 -20 c3 -5 2 -10 -4 -10 -5 0
-13 5 -16 10 -3 6 -2 10 4 10 5 0 13 -4 16 -10z m835 -82 c0 -38 -5 -34 -13
10 -4 21 -3 31 3 27 6 -3 10 -20 10 -37z"/>
<path d="M986 1955 c-3 -8 -1 -17 3 -20 5 -3 11 2 15 10 3 8 1 17 -3 20 -5 3
-11 -2 -15 -10z"/>
<path d="M1958 1933 c7 -3 16 -2 19 1 4 3 -2 6 -13 5 -11 0 -14 -3 -6 -6z"/>
<path d="M1820 1918 c0 -9 5 -20 10 -23 13 -8 13 5 0 25 -8 13 -10 13 -10 -2z"/>
<path d="M918 1913 c12 -2 32 -2 45 0 12 2 2 4 -23 4 -25 0 -35 -2 -22 -4z"/>
<path d="M1776 1901 c-4 -5 -2 -12 4 -16 5 -3 10 -13 10 -22 0 -12 -3 -13 -14
-4 -11 9 -15 5 -20 -20 -3 -17 -4 -35 -1 -39 3 -5 -3 -6 -14 -3 -15 4 -18 -1
-18 -21 l0 -26 143 0 c89 0 144 4 144 10 0 6 -16 10 -36 10 l-36 0 3 44 4 44
-52 -5 c-40 -4 -53 -3 -53 7 0 7 -3 11 -6 7 -3 -3 -16 5 -29 19 -13 14 -26 21
-29 15z"/>
<path d="M12663 1899 c11 -7 32 -7 60 -1 l42 10 -60 1 c-46 0 -56 -2 -42 -10z"/>
<path d="M12786 1902 c-3 -5 1 -13 10 -16 22 -9 654 -5 684 3 14 5 -121 9
-300 10 -179 0 -339 4 -356 7 -18 3 -34 1 -38 -4z"/>
<path d="M13663 1903 c53 -2 141 -2 195 0 53 1 9 3 -98 3 -107 0 -151 -2 -97
-3z"/>
<path d="M83 1850 c0 -25 2 -35 4 -22 2 12 2 32 0 45 -2 12 -4 2 -4 -23z"/>
<path d="M402 1850 c0 -19 2 -27 5 -17 2 9 2 25 0 35 -3 9 -5 1 -5 -18z"/>
<path d="M741 1834 c0 -11 3 -14 6 -6 3 7 2 16 -1 19 -3 4 -6 -2 -5 -13z"/>
<path d="M741 1764 c0 -11 3 -14 6 -6 3 7 2 16 -1 19 -3 4 -6 -2 -5 -13z"/>
<path d="M4377 1773 c-13 -12 -7 -23 13 -23 11 0 20 7 20 15 0 15 -21 21 -33
8z"/>
</g>
</svg>
